<svg width="393" height="852" viewBox="0 0 393 852" fill="none" xmlns="http://www.w3.org/2000/svg">
<g clip-path="url(#clip0_109_7)">
<rect width="393" height="852" fill="#0A0A0A"/>
<mask id="path-1-outside-1_109_7" maskUnits="userSpaceOnUse" x="-67" y="344" width="512" height="170" fill="black">
<rect fill="white" x="-67" y="344" width="512" height="170"/>
<path d="M-15.84 513V388.92H-65.04V345H90V388.92H40.8V513H-15.84ZM169.624 513V439.32L182.584 473.16L106.264 345H166.024L217.624 432.6H182.824L234.904 345H289.624L213.784 473.16L226.264 439.32V513H169.624ZM311.214 513V345H367.854V469.08H443.694V513H311.214Z"/>
</mask>
<path d="M-15.84 513H-16.84V514H-15.84V513ZM-15.84 388.92H-14.84V387.92H-15.84V388.92ZM-65.04 388.92H-66.04V389.92H-65.04V388.92ZM-65.04 345V344H-66.04V345H-65.04ZM90 345H91V344H90V345ZM90 388.92V389.92H91V388.92H90ZM40.8 388.92V387.92H39.8V388.92H40.8ZM40.8 513V514H41.8V513H40.8ZM-15.84 513H-14.84V388.92H-15.84H-16.84V513H-15.84ZM-15.84 388.92V387.92H-65.04V388.92V389.92H-15.84V388.92ZM-65.04 388.92H-64.04V345H-65.04H-66.04V388.92H-65.04ZM-65.04 345V346H90V345V344H-65.04V345ZM90 345H89V388.92H90H91V345H90ZM90 388.92V387.92H40.8V388.92V389.92H90V388.92ZM40.8 388.92H39.8V513H40.8H41.8V388.92H40.8ZM40.8 513V512H-15.84V513V514H40.8V513ZM169.624 513H168.624V514H169.624V513ZM169.624 439.32L170.558 438.962L168.624 439.32H169.624ZM182.584 473.16L181.725 473.672L183.518 472.802L182.584 473.16ZM106.264 345V344H104.504L105.405 345.512L106.264 345ZM166.024 345L166.885 344.492L166.595 344H166.024V345ZM217.624 432.6V433.6H219.373L218.485 432.092L217.624 432.6ZM182.824 432.6L181.964 432.089L181.066 433.6H182.824V432.6ZM234.904 345V344H234.335L234.044 344.489L234.904 345ZM289.624 345L290.484 345.509L291.378 344H289.624V345ZM213.784 473.16L212.846 472.814L214.644 473.669L213.784 473.16ZM226.264 439.32H227.264L225.326 438.974L226.264 439.32ZM226.264 513V514H227.264V513H226.264ZM169.624 513H170.624V439.32H169.624H168.624V513H169.624ZM169.624 439.32L168.69 439.678L181.65 473.518L182.584 473.16L183.518 472.802L170.558 438.962L169.624 439.32ZM182.584 473.16L183.443 472.648L107.123 344.488L106.264 345L105.405 345.512L181.725 473.672L182.584 473.16ZM106.264 345V346H166.024V345V344H106.264V345ZM166.024 345L165.162 345.508L216.762 433.108L217.624 432.6L218.485 432.092L166.885 344.492L166.024 345ZM217.624 432.6V431.6H182.824V432.6V433.6H217.624V432.6ZM182.824 432.6L183.683 433.111L235.763 345.511L234.904 345L234.044 344.489L181.964 432.089L182.824 432.6ZM234.904 345V346H289.624V345V344H234.904V345ZM289.624 345L288.763 344.491L212.923 472.651L213.784 473.16L214.644 473.669L290.484 345.509L289.624 345ZM213.784 473.16L214.722 473.506L227.202 439.666L226.264 439.32L225.326 438.974L212.846 472.814L213.784 473.16ZM226.264 439.32H225.264V513H226.264H227.264V439.32H226.264ZM226.264 513V512H169.624V513V514H226.264V513ZM311.214 513H310.214V514H311.214V513ZM311.214 345V344H310.214V345H311.214ZM367.854 345H368.854V344H367.854V345ZM367.854 469.08H366.854V470.08H367.854V469.08ZM443.694 469.08H444.694V468.08H443.694V469.08ZM443.694 513V514H444.694V513H443.694ZM311.214 513H312.214V345H311.214H310.214V513H311.214ZM311.214 345V346H367.854V345V344H311.214V345ZM367.854 345H366.854V469.08H367.854H368.854V345H367.854ZM367.854 469.08V470.08H443.694V469.08V468.08H367.854V469.08ZM443.694 469.08H442.694V513H443.694H444.694V469.08H443.694ZM443.694 513V512H311.214V513V514H443.694V513Z" fill="white" fill-opacity="0.1" mask="url(#path-1-outside-1_109_7)"/>
<path d="M127.72 455V413.64H111.32V399H163V413.64H146.6V455H127.72ZM189.541 455V430.44L193.861 441.72L168.421 399H188.341L205.541 428.2H193.941L211.301 399H229.541L204.261 441.72L208.421 430.44V455H189.541ZM236.738 455V399H255.618V440.36H280.898V455H236.738Z" fill="#D9D9D9"/>
</g>
<defs>
<clipPath id="clip0_109_7">
<rect width="393" height="852" fill="white"/>
</clipPath>
</defs>
</svg>
